<svg height="30" preserveAspectRatio="xMidYMid" viewBox="0 0 10.179 6.141" width="49.702" xmlns="http://www.w3.org/2000/svg"><path d="M2.402 1.602h1.92v.153H2.578v1.148h1.64v.153h-1.64v1.261h1.764v.153h-1.94zm2.092 0h.204l.904 1.261.923-1.261L7.782 0 5.717 2.995l1.064 1.474h-.212l-.968-1.341-.972 1.341h-.208l1.072-1.474zm2.364.153v-.153h2.188v.153H8.038V4.47h-.176V1.754zM0 1.602h.22l3.033 4.539-1.254-1.672L.184 1.818l-.008 2.65H0zM9.028 4.27a.06.06 0 0 1-.063-.064c0-.036.027-.064.063-.064s.063.028.063.064-.027.064-.063.064m.173-.168h.094c.001.051.039.085.093.085.061 0 .096-.037.096-.106v-.437h.096v.438c0 .124-.072.196-.191.196-.112 0-.188-.069-.188-.176m.505-.006h.095c.008.059.065.096.148.096.077 0 .134-.04.134-.095 0-.047-.036-.075-.118-.095l-.08-.019c-.112-.026-.163-.08-.163-.171 0-.11.09-.183.225-.183.125 0 .217.073.223.177h-.093c-.009-.057-.059-.093-.131-.093-.076 0-.126.036-.126.092 0 .044.033.069.113.088l.068.017c.127.03.179.081.179.174 0 .118-.092.192-.238.192-.137 0-.229-.071-.236-.181z"/></svg>