<svg id="katman_1" data-name="katman 1" xmlns="http://www.w3.org/2000/svg" version="1.1" viewBox="0 0 42.428 30" width="42.428" height="30"><defs><style>.cls-1{fill:#1c2024;stroke-width:0}</style></defs><path class="cls-1" d="M23.74 18.935h1.182a7 7 0 0 1-.13-1.392v-2.148c0-1.447-.826-2.159-2.309-2.159-1.343 0-2.256.702-2.374 1.896h1.321c.043-.515.408-.855 1.01-.855s1.031.329 1.031 1.008v.263l-1.633.186c-1.106.132-1.966.592-1.966 1.71 0 1.008.774 1.611 1.837 1.611.87 0 1.604-.362 1.908-.997.014.381.121.877.121.877Zm-1.654-.855c-.548 0-.849-.274-.849-.713 0-.581.44-.713 1.021-.789l1.214-.143v.34c0 .877-.677 1.304-1.386 1.304Zm7.387.855h1.354v-7.891h-1.375v3.232c-.258-.559-.881-1.041-1.73-1.041-1.475 0-2.499 1.195-2.499 2.916s1.024 2.916 2.499 2.916c.827 0 1.482-.461 1.751-1.02zm.011-2.686c0 1.085-.505 1.787-1.375 1.787s-1.453-.734-1.453-1.885.562-1.885 1.453-1.885 1.375.702 1.375 1.787zm2.145-3.825h1.461v-1.37h-1.461zm.043 6.511h1.375v-5.568h-1.375zm3.092 0 1.364-1.907 1.354 1.907h1.579l-2.116-2.916 1.944-2.653h-1.472l-1.214 1.721L35 13.366h-1.579l1.966 2.718-2.095 2.85z"/><path d="M14.929 18.932v-2.776h1.803l1.695 2.776h1.508l-1.861-2.984c.842-.27 1.58-.957 1.58-2.111 0-1.518-1.065-2.329-2.848-2.329h-3.228v7.424zm0-6.332v2.474h1.813c1.029 0 1.549-.426 1.549-1.237s-.566-1.237-1.642-1.237z" style="fill:#1c2024;stroke-width:0;fill-rule:evenodd"/><path class="cls-1" d="M6.618 20.324c-1.794 0-3.248-1.558-3.248-3.48s1.454-3.48 3.248-3.48zm0-10.672H3.37V12.9h3.248zM8.706 12.9a1.624 1.624 0 1 0 0-3.248 1.624 1.624 0 0 0 0 3.248"/></svg>