<svg width="30" height="30" viewBox="-1.181 0 11.963 11.963" xmlns="http://www.w3.org/2000/svg" xmlns:xlink="http://www.w3.org/1999/xlink" preserveAspectRatio="xMidYMid"><defs><path d="M.37 11 0 1.147A.6.6 0 0 1 .563.525L8.944.001a.6.6 0 0 1 .636.562L9.581.6v10.737a.6.6 0 0 1-.6.6l-.027-.001-8.011-.36a.6.6 0 0 1-.573-.577" id="a"/></defs><mask id="b" fill="#fff"><use xlink:href="#a"/></mask><use fill="#FF4785" xlink:href="#a"/><path d="M7.075 1.467 7.132.09 8.283 0l.05 1.42a.09.09 0 0 1-.145.073l-.444-.35-.525.399a.09.09 0 0 1-.144-.075M5.603 4.499c0 .234 1.573.122 1.784-.042 0-1.59-.853-2.426-2.416-2.426s-2.438.849-2.438 2.121c0 2.217 2.992 2.259 2.992 3.469 0 .339-.166.541-.532.541-.476 0-.665-.243-.643-1.071 0-.179-1.817-.235-1.873 0-.141 2.005 1.108 2.583 2.537 2.583 1.385 0 2.471-.738 2.471-2.075 0-2.376-3.036-2.312-3.036-3.49 0-.477.355-.541.565-.541.222 0 .62.039.587.93" fill="#FFF" mask="url(#b)"/></svg>